<svg width="19" height="27" viewBox="0 0 19 27" fill="none" xmlns="http://www.w3.org/2000/svg">
<path d="M5.25 3.53615V18.5597C5.25 19.9426 6.20139 21.0636 7.375 21.0636H15.875C17.0486 21.0636 18 19.9426 18 18.5597V7.59453C18 6.9207 17.7695 6.2753 17.3606 5.80421L13.8381 1.74583C13.441 1.28838 12.9079 1.03223 12.3525 1.03223H7.375C6.20139 1.03223 5.25 2.15327 5.25 3.53615Z" stroke="#4B8B8B" stroke-width="2" stroke-linecap="round" stroke-linejoin="round"/>
<path d="M13.75 20.0776V22.6372C13.75 24.0508 12.7986 25.1967 11.625 25.1967H3.125C1.95139 25.1967 1 24.0508 1 22.6372V8.55956C1 7.14596 1.95139 6 3.125 6H5.25" stroke="#4B8B8B" stroke-width="2" stroke-linecap="round" stroke-linejoin="round"/>
</svg>
