<svg width="13" height="13" viewBox="0 0 13 13" fill="none" xmlns="http://www.w3.org/2000/svg">
<circle cx="6.5" cy="6.5" r="6.5" fill="#FAFAFA"/>
<circle cx="6.5" cy="6.5" r="5.5" fill="#4B8B8B"/>
<path d="M8.85202 4.8539C9.04724 4.65868 9.04724 4.34164 8.85202 4.14642C8.6568 3.95119 8.33976 3.95119 8.14454 4.14642L6.5 5.79252L4.8539 4.14798C4.65868 3.95276 4.34164 3.95276 4.14642 4.14798C3.95119 4.3432 3.95119 4.66024 4.14642 4.85546L5.79252 6.5L4.14798 8.1461C3.95276 8.34132 3.95276 8.65836 4.14798 8.85358C4.3432 9.04881 4.66024 9.04881 4.85546 8.85358L6.5 7.20748L8.1461 8.85202C8.34132 9.04724 8.65836 9.04724 8.85358 8.85202C9.04881 8.6568 9.04881 8.33976 8.85358 8.14454L7.20748 6.5L8.85202 4.8539Z" fill="#FAFAFA"/>
</svg>
