<svg width="15" height="16" viewBox="0 0 15 16" fill="none" xmlns="http://www.w3.org/2000/svg">
<path d="M7.5 15.1572C3.36437 15.1572 0 11.7929 0 7.65723C0 3.5216 3.36437 0.157227 7.5 0.157227C11.6356 0.157227 15 3.5216 15 7.65723C15 11.7929 11.6356 15.1572 7.5 15.1572ZM7.5 1.40723C4.05375 1.40723 1.25 4.21098 1.25 7.65723C1.25 11.1035 4.05375 13.9072 7.5 13.9072C10.9462 13.9072 13.75 11.1035 13.75 7.65723C13.75 4.21098 10.9462 1.40723 7.5 1.40723ZM10.625 7.65723C10.625 7.3116 10.3456 7.03223 10 7.03223H8.125V3.90723C8.125 3.5616 7.845 3.28223 7.5 3.28223C7.155 3.28223 6.875 3.5616 6.875 3.90723V7.65723C6.875 8.00285 7.155 8.28223 7.5 8.28223H10C10.3456 8.28223 10.625 8.00285 10.625 7.65723Z" fill="#4B8B8B"/>
</svg>
