<svg width="15" height="16" viewBox="0 0 15 16" fill="none" xmlns="http://www.w3.org/2000/svg">
<path d="M14.3749 7.37512C14.2092 7.37512 14.0502 7.30928 13.933 7.19206C13.8158 7.07485 13.7499 6.91588 13.7499 6.75012C13.7486 5.42445 13.2214 4.15345 12.284 3.21605C11.3466 2.27866 10.0756 1.75145 8.74994 1.75012C8.58418 1.75012 8.42521 1.68428 8.308 1.56707C8.19079 1.44985 8.12494 1.29088 8.12494 1.12512C8.12494 0.959363 8.19079 0.800392 8.308 0.683182C8.42521 0.565971 8.58418 0.500123 8.74994 0.500123C10.407 0.501943 11.9956 1.16101 13.1673 2.33272C14.3391 3.50442 14.9981 5.09308 14.9999 6.75012C14.9999 6.91588 14.9341 7.07485 14.8169 7.19206C14.6997 7.30928 14.5407 7.37512 14.3749 7.37512ZM12.4999 6.75012C12.4999 5.75556 12.1049 4.80173 11.4016 4.09847C10.6983 3.39521 9.7445 3.00012 8.74994 3.00012C8.58418 3.00012 8.42521 3.06597 8.308 3.18318C8.19079 3.30039 8.12494 3.45936 8.12494 3.62512C8.12494 3.79088 8.19079 3.94985 8.308 4.06706C8.42521 4.18427 8.58418 4.25012 8.74994 4.25012C9.41298 4.25012 10.0489 4.51351 10.5177 4.98236C10.9865 5.4512 11.2499 6.08708 11.2499 6.75012C11.2499 6.91588 11.3158 7.07485 11.433 7.19206C11.5502 7.30928 11.7092 7.37512 11.8749 7.37512C12.0407 7.37512 12.1997 7.30928 12.3169 7.19206C12.4341 7.07485 12.4999 6.91588 12.4999 6.75012ZM13.8643 14.3526L14.4331 13.697C14.7951 13.3338 14.9983 12.842 14.9983 12.3292C14.9983 11.8164 14.7951 11.3245 14.4331 10.9614C14.4137 10.942 12.9099 9.78512 12.9099 9.78512C12.549 9.44158 12.0696 9.25029 11.5714 9.25098C11.0731 9.25168 10.5943 9.44432 10.2343 9.78887L9.04307 10.7926C8.07068 10.3902 7.18737 9.79961 6.44387 9.05482C5.70037 8.31003 5.11133 7.42571 4.71057 6.45262L5.71057 5.26512C6.05539 4.90523 6.24825 4.4263 6.24907 3.92787C6.24988 3.42945 6.05858 2.94989 5.71494 2.58887C5.71494 2.58887 4.55682 1.087 4.53744 1.06762C4.18085 0.708716 3.69737 0.504512 3.19146 0.499132C2.68555 0.493753 2.19783 0.68763 1.83369 1.03887L1.11494 1.66387C-3.13131 6.59012 6.01244 15.6632 11.1012 15.5001C11.6151 15.5031 12.1243 15.4031 12.5989 15.206C13.0735 15.0089 13.5037 14.7187 13.8643 14.3526Z" fill="#121927"/>
</svg>
