<svg width="15" height="16" viewBox="0 0 15 16" fill="none" xmlns="http://www.w3.org/2000/svg">
<g clip-path="url(#clip0_86_7083)">
<path d="M7.5 9.25C7.00272 9.25 6.52581 9.44754 6.17417 9.79917C5.82254 10.1508 5.625 10.6277 5.625 11.125V15.5162H9.375V11.125C9.375 10.6277 9.17746 10.1508 8.82583 9.79917C8.47419 9.44754 7.99728 9.25 7.5 9.25Z" fill="#121927"/>
<path d="M8.33625 1.02063C8.10671 0.814027 7.80882 0.699707 7.5 0.699707C7.19118 0.699707 6.89329 0.814027 6.66375 1.02063L0 7.01813V13.5181C0 14.0486 0.210714 14.5573 0.585786 14.9323C0.960859 15.3074 1.46957 15.5181 2 15.5181H4.375V11.125C4.375 10.2962 4.70424 9.50135 5.29029 8.9153C5.87634 8.32925 6.6712 8 7.5 8C8.3288 8 9.12366 8.32925 9.70971 8.9153C10.2958 9.50135 10.625 10.2962 10.625 11.125V15.5163H13C13.5304 15.5163 14.0391 15.3055 14.4142 14.9305C14.7893 14.5554 15 14.0467 15 13.5163V7.01625L8.33625 1.02063Z" fill="#121927"/>
</g>
<defs>
<clipPath id="clip0_86_7083">
<rect width="15" height="15" fill="white" transform="translate(0 0.5)"/>
</clipPath>
</defs>
</svg>
