<svg width="21" height="20" viewBox="0 0 21 20" fill="none" xmlns="http://www.w3.org/2000/svg">
<g clip-path="url(#clip0_83_2280)">
<path d="M15.5 7.55325C15.5001 7.21805 15.4339 6.88614 15.3052 6.57664C15.1765 6.26714 14.9878 5.98617 14.75 5.74992C14.2634 5.28563 13.6167 5.02658 12.9442 5.02658C12.2716 5.02658 11.6249 5.28563 11.1383 5.74992L1.24999 15.6408C0.798669 16.1247 0.552855 16.7649 0.564351 17.4266C0.575846 18.0882 0.843754 18.7195 1.31161 19.1875C1.77947 19.6554 2.41073 19.9235 3.07235 19.9351C3.73398 19.9468 4.37428 19.7011 4.85832 19.2499L14.75 9.35909C14.9881 9.12259 15.1771 8.84122 15.3058 8.53126C15.4345 8.2213 15.5005 7.88889 15.5 7.55325ZM3.67999 18.0733C3.51153 18.2338 3.28772 18.3234 3.05499 18.3234C2.82225 18.3234 2.59845 18.2338 2.42999 18.0733C2.2645 17.9073 2.17156 17.6826 2.17156 17.4483C2.17156 17.2139 2.2645 16.9892 2.42999 16.8233L8.90415 10.3483L10.1583 11.6024L3.67999 18.0733ZM13.5733 8.17992L11.3333 10.4208L10.0833 9.16659L12.3242 6.92659C12.404 6.83533 12.5018 6.76145 12.6114 6.70952C12.721 6.6576 12.8401 6.62873 12.9613 6.6247C13.0825 6.62068 13.2033 6.64159 13.3161 6.68613C13.4289 6.73068 13.5313 6.79791 13.6171 6.88367C13.7028 6.96943 13.7701 7.07188 13.8146 7.18468C13.8592 7.29748 13.8801 7.41823 13.876 7.53944C13.872 7.66065 13.8431 7.77974 13.7912 7.88934C13.7393 7.99894 13.6654 8.09671 13.5742 8.17659L13.5733 8.17992ZM4.55249 2.37909L5.84415 2.01075L6.21249 0.719085C6.27182 0.511822 6.39704 0.329516 6.56919 0.199735C6.74134 0.0699541 6.95106 -0.000244141 7.16665 -0.000244141C7.38224 -0.000244141 7.59197 0.0699541 7.76412 0.199735C7.93627 0.329516 8.06148 0.511822 8.12082 0.719085L8.48915 2.01075L9.78082 2.37909C9.98808 2.43842 10.1704 2.56363 10.3002 2.73578C10.43 2.90794 10.5001 3.11766 10.5001 3.33325C10.5001 3.54884 10.43 3.75857 10.3002 3.93072C10.1704 4.10287 9.98808 4.22808 9.78082 4.28742L8.48915 4.65575L8.12082 5.94742C8.06148 6.15468 7.93627 6.33699 7.76412 6.46677C7.59197 6.59655 7.38224 6.66675 7.16665 6.66675C6.95106 6.66675 6.74134 6.59655 6.56919 6.46677C6.39704 6.33699 6.27182 6.15468 6.21249 5.94742L5.84415 4.65575L4.55249 4.28742C4.34522 4.22808 4.16292 4.10287 4.03314 3.93072C3.90336 3.75857 3.83316 3.54884 3.83316 3.33325C3.83316 3.11766 3.90336 2.90794 4.03314 2.73578C4.16292 2.56363 4.34522 2.43842 4.55249 2.37909ZM19.7808 14.2874L18.4892 14.6558L18.1208 15.9474C18.0615 16.1547 17.9363 16.337 17.7641 16.4668C17.592 16.5965 17.3822 16.6667 17.1667 16.6667C16.9511 16.6667 16.7413 16.5965 16.5692 16.4668C16.397 16.337 16.2718 16.1547 16.2125 15.9474L15.8442 14.6558L14.5525 14.2874C14.3452 14.2281 14.1629 14.1029 14.0331 13.9307C13.9034 13.7586 13.8332 13.5488 13.8332 13.3333C13.8332 13.1177 13.9034 12.9079 14.0331 12.7358C14.1629 12.5636 14.3452 12.4384 14.5525 12.3791L15.8442 12.0108L16.2125 10.7191C16.2718 10.5118 16.397 10.3295 16.5692 10.1997C16.7413 10.07 16.9511 9.99976 17.1667 9.99976C17.3822 9.99976 17.592 10.07 17.7641 10.1997C17.9363 10.3295 18.0615 10.5118 18.1208 10.7191L18.4892 12.0108L19.7808 12.3791C19.9881 12.4384 20.1704 12.5636 20.3002 12.7358C20.43 12.9079 20.5001 13.1177 20.5001 13.3333C20.5001 13.5488 20.43 13.7586 20.3002 13.9307C20.1704 14.1029 19.9881 14.2281 19.7808 14.2874ZM15.2958 2.08325L16.4258 1.76075L16.75 0.629085C16.8027 0.448933 16.9125 0.290728 17.0627 0.178179C17.2129 0.0656301 17.3956 0.0047976 17.5833 0.0047976C17.771 0.0047976 17.9537 0.0656301 18.1039 0.178179C18.2542 0.290728 18.3639 0.448933 18.4167 0.629085L18.7392 1.75909L19.8692 2.08159C20.0493 2.13434 20.2075 2.24406 20.3201 2.3943C20.4326 2.54454 20.4934 2.7272 20.4934 2.91492C20.4934 3.10264 20.4326 3.2853 20.3201 3.43554C20.2075 3.58577 20.0493 3.69549 19.8692 3.74825L18.7392 4.07075L18.4167 5.20325C18.3639 5.3834 18.2542 5.54161 18.1039 5.65416C17.9537 5.76671 17.771 5.82754 17.5833 5.82754C17.3956 5.82754 17.2129 5.76671 17.0627 5.65416C16.9125 5.54161 16.8027 5.3834 16.75 5.20325L16.4275 4.07409L15.2958 3.74992C15.1157 3.69716 14.9575 3.58744 14.8449 3.4372C14.7324 3.28697 14.6715 3.1043 14.6715 2.91659C14.6715 2.72887 14.7324 2.5462 14.8449 2.39597C14.9575 2.24573 15.1157 2.13601 15.2958 2.08325Z" fill="#4B8B8B"/>
</g>
<defs>
<clipPath id="clip0_83_2280">
<rect width="20" height="20" fill="white" transform="translate(0.5)"/>
</clipPath>
</defs>
</svg>
