<svg width="20" height="20" viewBox="0 0 20 20" fill="none" xmlns="http://www.w3.org/2000/svg">
<path opacity="0.964" fill-rule="evenodd" clip-rule="evenodd" d="M9.90234 1.19141C10.0691 1.20054 10.2254 1.24612 10.3711 1.32812C13.125 4.08203 15.8789 6.83594 18.6328 9.58984C18.8746 10.148 18.6988 10.4996 18.1055 10.6445C17.9666 10.6229 17.8364 10.5773 17.7148 10.5078C15.1427 7.92914 12.5646 5.35754 9.98047 2.79297C7.39637 5.35754 4.81824 7.92914 2.24609 10.5078C1.68839 10.7498 1.33682 10.574 1.19141 9.98047C1.21507 9.84266 1.26064 9.71246 1.32812 9.58984C4.08203 6.83594 6.83594 4.08203 9.58984 1.32812C9.69367 1.27039 9.79785 1.22482 9.90234 1.19141Z" fill="#B8BABE"/>
<path opacity="0.986" fill-rule="evenodd" clip-rule="evenodd" d="M3.49615 11.2303C3.88131 11.1463 4.16127 11.2765 4.33599 11.6209C4.349 13.0011 4.36205 14.3813 4.37506 15.7615C4.52986 16.7626 5.10928 17.3291 6.11334 17.4607C8.69146 17.4868 11.2696 17.4868 13.8477 17.4607C14.8518 17.3291 15.4312 16.7626 15.586 15.7615C15.599 14.3813 15.612 13.0011 15.6251 11.6209C15.7998 11.27 16.0797 11.1463 16.4649 11.2498C16.6407 11.3214 16.7644 11.4451 16.836 11.6209C16.862 13.1183 16.862 14.6157 16.836 16.1131C16.5433 17.5516 15.6774 18.4175 14.2383 18.7107C14.0799 18.7198 13.9237 18.7393 13.7696 18.7693C11.2435 18.7173 8.71752 18.7173 6.19146 18.7693C4.62943 18.6455 3.6203 17.8382 3.16412 16.3475C3.10015 14.7734 3.08713 13.1979 3.12506 11.6209C3.20405 11.4443 3.32775 11.3141 3.49615 11.2303Z" fill="#B8BABE"/>
</svg>
