<svg width="20" height="16" viewBox="0 0 20 16" fill="none" xmlns="http://www.w3.org/2000/svg">
<path d="M17.1684 1.91851C16.1534 0.971841 14.825 0.458507 13.5142 0.513507C12.3284 0.562674 11.235 1.07351 10.435 1.95267L10.0009 2.43101L9.5667 1.95267C8.7667 1.07351 7.67337 0.562674 6.48754 0.513507C5.17504 0.456841 3.84754 0.971841 2.83337 1.91851C1.8942 2.79517 0.807536 4.57517 0.83587 6.70517C0.86337 8.85684 1.96504 10.9127 4.11087 12.8143C4.82504 13.4477 5.6692 14.0352 6.69004 14.6118C7.7092 15.1868 8.85504 15.491 10.0025 15.491C11.15 15.491 12.2959 15.1868 13.3159 14.6118C14.3359 14.036 15.1792 13.4477 15.8942 12.8143C18.0392 10.9127 19.1409 8.85684 19.1692 6.70517C19.1967 4.57517 18.11 2.79517 17.1717 1.91851H17.1684ZM14.7867 11.5668C14.1609 12.1218 13.4109 12.6427 12.4942 13.1602C10.9542 14.0293 9.04587 14.0285 7.50837 13.1602C6.59087 12.6418 5.84087 12.121 5.21504 11.5668C3.43587 9.98934 2.52337 8.34601 2.50087 6.68351C2.4792 4.98684 3.41504 3.65601 3.97087 3.13684C4.6292 2.52267 5.47087 2.17684 6.29837 2.17684C7.11837 2.17684 7.82837 2.51934 8.33254 3.07434L9.3842 4.23101C9.70004 4.57851 10.3025 4.57851 10.6175 4.23101L11.6692 3.07434C12.1734 2.51934 12.835 2.20934 13.5834 2.17934C14.4484 2.14434 15.3409 2.49267 16.0317 3.13684C16.5875 3.65601 17.5234 4.98767 17.5017 6.68351C17.48 8.34684 16.5667 9.98934 14.7875 11.5668H14.7867Z" fill="#B8BABE"/>
</svg>
