<svg width="20" height="20" viewBox="0 0 20 20" fill="none" xmlns="http://www.w3.org/2000/svg">
<g clip-path="url(#clip0_86_6569)">
<path d="M10 10C10.9889 10 11.9556 9.70676 12.7779 9.15735C13.6001 8.60794 14.241 7.82705 14.6194 6.91342C14.9978 5.99979 15.0969 4.99446 14.9039 4.02455C14.711 3.05465 14.2348 2.16373 13.5355 1.46447C12.8363 0.765206 11.9454 0.289002 10.9755 0.0960758C10.0055 -0.0968503 9.00021 0.00216643 8.08658 0.380605C7.17295 0.759043 6.39206 1.39991 5.84265 2.22215C5.29324 3.0444 5 4.0111 5 5C5.00132 6.32568 5.52853 7.59668 6.46593 8.53407C7.40332 9.47147 8.67432 9.99868 10 10ZM10 1.66667C10.6593 1.66667 11.3037 1.86217 11.8519 2.22844C12.4001 2.59471 12.8273 3.1153 13.0796 3.72439C13.3319 4.33348 13.3979 5.0037 13.2693 5.6503C13.1407 6.29691 12.8232 6.89085 12.357 7.35703C11.8908 7.8232 11.2969 8.14067 10.6503 8.26929C10.0037 8.3979 9.33348 8.33189 8.72439 8.0796C8.1153 7.82731 7.59471 7.40007 7.22843 6.8519C6.86216 6.30374 6.66667 5.65927 6.66667 5C6.66667 4.11595 7.01786 3.2681 7.64298 2.64298C8.2681 2.01786 9.11594 1.66667 10 1.66667Z" fill="#B8BABE"/>
<path d="M10 11C8.01155 11.0022 6.10518 11.7931 4.69914 13.1991C3.29309 14.6052 2.50221 16.5116 2.5 18.5C2.5 18.721 2.5878 18.933 2.74408 19.0893C2.90036 19.2455 3.11232 19.3333 3.33333 19.3333C3.55435 19.3333 3.76631 19.2455 3.92259 19.0893C4.07887 18.933 4.16667 18.721 4.16667 18.5C4.16667 16.9529 4.78125 15.4692 5.87521 14.3752C6.96917 13.2812 8.4529 12.6667 10 12.6667C11.5471 12.6667 13.0308 13.2812 14.1248 14.3752C15.2188 15.4692 15.8333 16.9529 15.8333 18.5C15.8333 18.721 15.9211 18.933 16.0774 19.0893C16.2337 19.2455 16.4457 19.3333 16.6667 19.3333C16.8877 19.3333 17.0996 19.2455 17.2559 19.0893C17.4122 18.933 17.5 18.721 17.5 18.5C17.4978 16.5116 16.7069 14.6052 15.3009 13.1991C13.8948 11.7931 11.9884 11.0022 10 11Z" fill="#B8BABE"/>
</g>
<defs>
<clipPath id="clip0_86_6569">
<rect width="20" height="20" fill="white"/>
</clipPath>
</defs>
</svg>
