<svg width="23" height="22" viewBox="0 0 23 22" fill="none" xmlns="http://www.w3.org/2000/svg">
<path d="M22.2728 17.7324C22.2728 16.2033 20.1482 14.9487 16.4437 14.2905C16.1937 14.2451 15.9609 14.4114 15.9164 14.6587C15.8718 14.906 16.0373 15.1414 16.2837 15.186C19.7746 15.8069 21.3637 16.9414 21.3637 17.7333C21.3637 19.1305 17.2564 20.6878 11.3637 20.6878C5.47094 20.6878 1.36367 19.1305 1.36367 17.7333C1.36367 16.9414 2.95276 15.8069 6.44367 15.186C6.69003 15.1424 6.85548 14.906 6.81094 14.6587C6.76639 14.4114 6.53457 14.2451 6.28367 14.2905C2.57912 14.9496 0.454575 16.2033 0.454575 17.7324C0.454575 20.2414 6.07548 21.596 11.3637 21.596C16.6518 21.596 22.2728 20.2414 22.2728 17.7324Z" fill="#4B8B8B"/>
<path d="M15.8622 4.49859C15.8622 2.01762 13.8446 0 11.3636 0C8.88267 0 6.86505 2.01762 6.86505 4.49859C6.86505 6.72389 8.48904 8.57656 10.6139 8.9342V17.2446C10.6139 17.6585 10.9498 17.9944 11.3636 17.9944C11.7775 17.9944 12.1134 17.6585 12.1134 17.2446V8.9342C14.2382 8.57656 15.8622 6.72389 15.8622 4.49859Z" fill="#4B8B8B"/>
</svg>
