<svg width="24" height="24" viewBox="0 0 24 24" fill="none" xmlns="http://www.w3.org/2000/svg">
<path d="M10.5952 14.0665C11.8749 14.8054 13.5111 14.367 14.2499 13.0873C14.9888 11.8076 14.5504 10.1713 13.2707 9.43247C11.991 8.69363 10.3547 9.13207 9.61587 10.4118C8.87703 11.6915 9.31546 13.3277 10.5952 14.0665Z" stroke="#4B8B8B" stroke-width="2" stroke-miterlimit="10" stroke-linecap="round" stroke-linejoin="round"/>
<path d="M3.81664 7.96974L4.60145 6.61041C5.0652 5.80717 6.10516 5.52201 6.91613 5.99022C8.31407 6.79732 9.45638 6.1387 9.45363 4.52033C9.45333 3.59334 10.2145 2.82793 11.1492 2.83209L12.9268 2.8389C13.7465 2.82817 14.4095 3.49926 14.4202 4.31899L14.4204 4.51479C14.4155 6.1287 15.5585 6.78865 16.9615 5.98185L17.1311 5.88415C17.8464 5.48358 18.7591 5.72216 19.1596 6.43743L20.0543 7.97349C20.5253 8.78089 20.243 9.82277 19.4401 10.286C18.0371 11.0928 18.0379 12.4114 19.4359 13.2185C20.2391 13.6822 20.5243 14.7222 20.0561 15.5332L19.2713 16.8925C18.8075 17.6957 17.7676 17.9809 16.9566 17.5127C15.5587 16.7056 14.4163 17.3642 14.4191 18.9826C14.4149 19.9173 13.6582 20.675 12.7235 20.6708L10.9459 20.664C10.1262 20.6748 9.46325 20.0037 9.45252 19.1839L9.45228 18.9881C9.45725 17.3742 8.31418 16.7143 6.91126 17.5211L6.74158 17.6188C6.0263 18.0193 5.11365 17.7808 4.71308 17.0655L3.81838 15.5294C3.34742 14.722 3.62971 13.6802 4.43265 13.2169C5.83557 12.4101 5.83481 11.0915 4.43686 10.2844C3.6259 9.81622 3.35289 8.77298 3.81664 7.96974Z" stroke="#4B8B8B" stroke-width="2" stroke-miterlimit="10" stroke-linecap="round" stroke-linejoin="round"/>
</svg>
