<svg width="15" height="16" viewBox="0 0 15 16" fill="none" xmlns="http://www.w3.org/2000/svg">
<g clip-path="url(#clip0_86_897)">
<path d="M7.5 15.5C3.36437 15.5 0 12.1356 0 8C0 3.86437 3.36437 0.5 7.5 0.5C11.6356 0.5 15 3.86437 15 8C15 12.1356 11.6356 15.5 7.5 15.5ZM7.5 1.75C4.05375 1.75 1.25 4.55375 1.25 8C1.25 11.4462 4.05375 14.25 7.5 14.25C10.9462 14.25 13.75 11.4462 13.75 8C13.75 4.55375 10.9462 1.75 7.5 1.75ZM10.625 8C10.625 7.65438 10.3456 7.375 10 7.375H8.125V4.25C8.125 3.90438 7.845 3.625 7.5 3.625C7.155 3.625 6.875 3.90438 6.875 4.25V8C6.875 8.34562 7.155 8.625 7.5 8.625H10C10.3456 8.625 10.625 8.34562 10.625 8Z" fill="#B8BABE"/>
</g>
<defs>
<clipPath id="clip0_86_897">
<rect width="15" height="15" fill="white" transform="translate(0 0.5)"/>
</clipPath>
</defs>
</svg>
