<svg width="20" height="20" viewBox="0 0 20 20" fill="none" xmlns="http://www.w3.org/2000/svg">
<path d="M10 20C15.5 20 20 15.5 20 10C20 4.5 15.5 0 10 0C4.5 0 0 4.5 0 10C0 15.5 4.5 20 10 20ZM12.0833 14.1667C11.5833 16.75 10.6667 18.3333 10 18.3333C9.33333 18.3333 8.41667 16.75 7.91667 14.1667H12.0833ZM6.16667 14.1667C6.41667 15.5833 6.83333 16.9167 7.33333 17.9167C5.41667 17.25 3.75 15.9167 2.75 14.1667H6.16667ZM17.25 14.1667C16.25 15.9167 14.5833 17.25 12.6667 17.9167C13.1667 16.9167 13.5833 15.5833 13.8333 14.1667H17.25ZM5.91667 12.5H2C1.83333 11.75 1.66667 10.8333 1.66667 10C1.66667 9.16667 1.83333 8.25 2.08333 7.5H6C5.83333 8.33333 5.83333 9.16667 5.83333 10C5.83333 10.8333 5.83333 11.6667 5.91667 12.5ZM12.3333 12.5H7.58333C7.5 11.75 7.41667 10.9167 7.41667 10C7.41667 9.08333 7.5 8.25 7.58333 7.5H12.3333C12.4167 8.25 12.5 9.08333 12.5 10C12.5 10.9167 12.4167 11.75 12.3333 12.5ZM17.9167 12.5H14C14.0833 11.6667 14.0833 10.8333 14.0833 10C14.0833 9.16667 14.0833 8.33333 14 7.5H17.9167C18.1667 8.25 18.3333 9.16667 18.3333 10C18.3333 10.8333 18.1667 11.75 17.9167 12.5ZM6.16667 5.83333H2.75C3.75 4.08333 5.41667 2.75 7.33333 2.08333C6.83333 3.08333 6.41667 4.41667 6.16667 5.83333ZM12.0833 5.83333H7.83333C8.33333 3.25 9.25 1.66667 9.91667 1.66667C10.5833 1.66667 11.5833 3.25 12.0833 5.83333ZM17.25 5.83333H13.8333C13.5833 4.41667 13.1667 3.08333 12.6667 2.08333C14.5833 2.75 16.1667 4.08333 17.25 5.83333Z" fill="#121927"/>
</svg>
