<svg width="116" height="97" viewBox="0 0 116 97" fill="none" xmlns="http://www.w3.org/2000/svg">
<circle cx="62" cy="6.5" r="6.5" fill="#FAAB00"/>
<path d="M45.5 4L4 59H81.5L45.5 4Z" fill="white" stroke="#121927" stroke-width="3"/>
<path d="M32 23L38 28.5L45 25.5L51.5 28.5L57.5 23" stroke="black" stroke-width="3"/>
<path d="M76.6226 11L112.5 59H45.5L76.6226 11Z" fill="white" stroke="#121927" stroke-width="3"/>
<path d="M66.5 26L71.6765 30.7451L77.7157 28.1569L83.3235 30.7451L88.5 26" stroke="black" stroke-width="3"/>
<path d="M23.9125 82.3C23.1458 82.3 22.4208 82.1667 21.7375 81.9C21.0708 81.6333 20.5125 81.2833 20.0625 80.85L21.2125 79.025C21.5458 79.375 21.9458 79.6667 22.4125 79.9C22.8792 80.1333 23.3542 80.25 23.8375 80.25C24.6375 80.25 25.2708 79.9667 25.7375 79.4C26.2042 78.8167 26.4375 77.8417 26.4375 76.475V64.5H28.8125V76.225C28.8125 78.3417 28.3625 79.8833 27.4625 80.85C26.5625 81.8167 25.3792 82.3 23.9125 82.3ZM38.0047 82.3C36.138 82.3 34.6547 81.7083 33.5547 80.525C32.4714 79.325 31.9297 77.65 31.9297 75.5C31.9297 74.2 32.1714 73.0417 32.6547 72.025C33.1547 70.9917 33.8464 70.1833 34.7297 69.6C35.613 69 36.638 68.7 37.8047 68.7C39.0547 68.7 40.088 68.975 40.9047 69.525C41.738 70.0583 42.363 70.7833 42.7797 71.7C43.1964 72.6167 43.4047 73.625 43.4047 74.725C43.4047 75.3083 43.3797 75.875 43.3297 76.425H34.2297C34.3797 77.6417 34.8047 78.5917 35.5047 79.275C36.2047 79.9583 37.1297 80.3 38.2797 80.3C39.0297 80.3 39.7047 80.225 40.3047 80.075C40.9047 79.9083 41.4797 79.7 42.0297 79.45L42.5547 81.375C41.9547 81.6417 41.2797 81.8583 40.5297 82.025C39.7797 82.2083 38.938 82.3 38.0047 82.3ZM34.2047 74.6H41.3297C41.3297 73.3333 41.013 72.3583 40.3797 71.675C39.7464 70.9917 38.8714 70.65 37.7547 70.65C36.788 70.65 35.988 70.9917 35.3547 71.675C34.7214 72.3417 34.338 73.3167 34.2047 74.6ZM44.5842 87.8C43.5675 87.8 42.7175 87.6083 42.0342 87.225L42.5842 85.35C42.8008 85.4833 43.0675 85.6 43.3842 85.7C43.6842 85.8 43.9925 85.85 44.3092 85.85C45.7258 85.85 46.4342 84.9667 46.4342 83.2V69H48.6842V83.425C48.6842 84.4417 48.5008 85.2667 48.1342 85.9C47.7675 86.55 47.2758 87.025 46.6592 87.325C46.0425 87.6417 45.3508 87.8 44.5842 87.8ZM47.5092 66.775C47.0758 66.775 46.7008 66.6167 46.3842 66.3C46.0842 65.9833 45.9342 65.6167 45.9342 65.2C45.9342 64.7167 46.0758 64.3333 46.3592 64.05C46.6425 63.7667 47.0258 63.625 47.5092 63.625C47.9425 63.625 48.3092 63.7833 48.6092 64.1C48.9258 64.4 49.0842 64.7667 49.0842 65.2C49.0842 65.6667 48.9425 66.05 48.6592 66.35C48.3758 66.6333 47.9925 66.775 47.5092 66.775ZM56.9277 82.3C56.1777 82.3 55.4694 82.1417 54.8027 81.825C54.1361 81.5083 53.5944 81 53.1777 80.3C52.7611 79.5833 52.5527 78.6333 52.5527 77.45V69H54.8027V77.15C54.8027 78.1667 55.0194 78.95 55.4527 79.5C55.8861 80.0333 56.5194 80.3 57.3527 80.3C58.0361 80.3 58.6944 80.1667 59.3277 79.9C59.9777 79.6167 60.5527 79.2417 61.0527 78.775V69H63.3027V78.625C63.3027 79.3417 63.4527 79.8167 63.7527 80.05C64.0694 80.2667 64.4111 80.375 64.7777 80.375L64.3027 82.125C62.7527 82.125 61.7944 81.5083 61.4277 80.275C60.8444 80.875 60.1694 81.3667 59.4027 81.75C58.6361 82.1167 57.8111 82.3 56.9277 82.3ZM69.6156 82.3C68.849 82.3 68.124 82.1667 67.4406 81.9C66.774 81.6333 66.2156 81.2833 65.7656 80.85L66.9156 79.025C67.249 79.375 67.649 79.6667 68.1156 79.9C68.5823 80.1333 69.0573 80.25 69.5406 80.25C70.3406 80.25 70.974 79.9667 71.4406 79.4C71.9073 78.8167 72.1406 77.8417 72.1406 76.475V64.5H74.5156V76.225C74.5156 78.3417 74.0656 79.8833 73.1656 80.85C72.2656 81.8167 71.0823 82.3 69.6156 82.3ZM83.4828 82.3C82.3995 82.3 81.4161 82.025 80.5328 81.475C79.6495 80.925 78.9411 80.15 78.4078 79.15C77.8911 78.1333 77.6328 76.9417 77.6328 75.575C77.6328 74.275 77.8911 73.1083 78.4078 72.075C78.9411 71.0417 79.6661 70.225 80.5828 69.625C81.5161 69.0083 82.5828 68.7 83.7828 68.7C84.5328 68.7 85.2078 68.8333 85.8078 69.1C86.4245 69.35 86.9578 69.6667 87.4078 70.05V69H89.4578V78.85C89.4578 79.4833 89.6078 79.9 89.9078 80.1C90.2245 80.2833 90.5661 80.375 90.9328 80.375L90.4578 82.125C88.8578 82.125 87.8911 81.475 87.5578 80.175C87.1745 80.7083 86.6495 81.2 85.9828 81.65C85.3328 82.0833 84.4995 82.3 83.4828 82.3ZM83.9828 80.3C84.6161 80.3 85.2161 80.15 85.7828 79.85C86.3495 79.5333 86.8245 79.1417 87.2078 78.675V71.7C86.7578 71.3833 86.2578 71.1333 85.7078 70.95C85.1745 70.75 84.6078 70.65 84.0078 70.65C83.2078 70.65 82.4995 70.8583 81.8828 71.275C81.2828 71.675 80.8078 72.2417 80.4578 72.975C80.1078 73.6917 79.9328 74.5333 79.9328 75.5C79.9328 76.4333 80.1078 77.2667 80.4578 78C80.8078 78.7167 81.2911 79.2833 81.9078 79.7C82.5245 80.1 83.2161 80.3 83.9828 80.3Z" fill="#121927"/>
</svg>
