<svg width="13" height="15" viewBox="0 0 13 15" fill="none" xmlns="http://www.w3.org/2000/svg">
<path fill-rule="evenodd" clip-rule="evenodd" d="M4.31556 13.8371L4.35408 13.874L4.35709 13.8769C5.06275 14.5484 5.74694 15.0087 6.52081 14.9999C7.29116 14.9911 7.97256 14.5188 8.67777 13.8368C9.64432 12.9067 10.895 11.6522 11.7985 10.1638C12.7054 8.66982 13.2907 6.89386 12.8503 4.94459C11.3624 -1.64317 1.64539 -1.65089 0.149673 4.93759C-0.27822 6.83161 0.26237 8.56416 1.12446 10.0325C1.9833 11.4954 3.18502 12.7374 4.14878 13.6755C4.20494 13.7301 4.26036 13.7838 4.3149 13.8365L4.31556 13.8371ZM6.50001 3.48899C5.23876 3.48899 4.21628 4.50442 4.21628 5.75701C4.21628 7.00956 5.23876 8.025 6.50001 8.025C7.76126 8.025 8.78374 7.00956 8.78374 5.75701C8.78374 4.50442 7.76126 3.48899 6.50001 3.48899Z" fill="#4B8B8B"/>
</svg>
