<svg width="19" height="23" viewBox="0 0 19 23" fill="none" xmlns="http://www.w3.org/2000/svg">
<path fill-rule="evenodd" clip-rule="evenodd" d="M4.33166 0.588379C1.93936 0.588379 0 2.84853 0 5.63655V17.9282C0 20.7162 1.93936 22.9764 4.33166 22.9764H9.46113C9.91181 22.9764 10.2771 22.5507 10.2771 22.0254C10.2771 21.5002 9.91181 21.0745 9.46113 21.0745H4.33166C2.84066 21.0745 1.63196 19.6659 1.63196 17.9282V5.63655C1.63196 3.89891 2.84066 2.49028 4.33166 2.49028H14.5906C16.0816 2.49028 17.2902 3.89891 17.2902 5.63655V11.7824C17.2902 12.3076 17.6556 12.7333 18.1063 12.7333C18.5569 12.7333 18.9222 12.3076 18.9222 11.7824V5.63655C18.9222 2.84853 16.9829 0.588379 14.5906 0.588379H4.33166ZM4.80506 10.8312C4.35441 10.8312 3.98908 11.2569 3.98908 11.7822C3.98908 12.3074 4.35441 12.7331 4.80506 12.7331H7.68581C8.13648 12.7331 8.50177 12.3074 8.50177 11.7822C8.50177 11.2569 8.13648 10.8312 7.68581 10.8312H4.80506ZM3.98908 7.30703C3.98908 6.78183 4.35441 6.35607 4.80506 6.35607H10.565C11.0156 6.35607 11.3809 6.78183 11.3809 7.30703C11.3809 7.83223 11.0156 8.25798 10.565 8.25798H4.80506C4.35441 8.25798 3.98908 7.83223 3.98908 7.30703ZM16.7444 13.2277C16.2381 12.6279 15.4172 12.6279 14.9109 13.2277L11.3028 17.5026C11.0249 17.8321 10.8881 18.293 10.9308 18.7559L11.1372 20.9897C11.1909 21.5712 11.5784 22.0304 12.0692 22.094L13.9545 22.3384C14.3453 22.3891 14.7343 22.2271 15.0123 21.8977L18.6204 17.6227C19.1265 17.0229 19.1265 16.0503 18.6204 15.4504L16.7444 13.2277ZM12.5565 18.7293L15.8276 14.8535L17.2483 16.5366L13.9771 20.4124L12.6966 20.2464L12.5565 18.7293Z" fill="#4B8B8B"/>
</svg>
