<svg width="15" height="16" viewBox="0 0 15 16" fill="none" xmlns="http://www.w3.org/2000/svg">
<g clip-path="url(#clip0_86_5829)">
<path d="M7.47375 15.1623L7.03808 14.7888C6.43746 14.2859 1.19312 9.75673 1.19312 6.44372C1.19312 2.97503 4.00506 0.163086 7.47375 0.163086C10.9424 0.163086 13.7544 2.97503 13.7544 6.44372C13.7544 9.75676 8.51004 14.286 7.91191 14.7913L7.47375 15.1623ZM7.47375 1.52114C4.75638 1.52422 2.55428 3.72632 2.5512 6.44369C2.5512 8.525 5.77772 11.8498 7.47375 13.3716C9.1698 11.8492 12.3963 8.52248 12.3963 6.44369C12.3932 3.72632 10.1912 1.52425 7.47375 1.52114Z" fill="#4B8B8B"/>
<path d="M7.47372 8.93328C6.09876 8.93328 4.98413 7.81865 4.98413 6.44369C4.98413 5.06873 6.09876 3.9541 7.47372 3.9541C8.84868 3.9541 9.96331 5.06873 9.96331 6.44369C9.96331 7.81865 8.84871 8.93328 7.47372 8.93328ZM7.47372 5.19887C6.78624 5.19887 6.22893 5.75618 6.22893 6.44366C6.22893 7.13114 6.78624 7.68846 7.47372 7.68846C8.1612 7.68846 8.71851 7.13114 8.71851 6.44366C8.71851 5.75618 8.16123 5.19887 7.47372 5.19887Z" fill="#4B8B8B"/>
</g>
<defs>
<clipPath id="clip0_86_5829">
<rect width="15" height="15" fill="white" transform="translate(0 0.157227)"/>
</clipPath>
</defs>
</svg>
