<svg width="17" height="16" viewBox="0 0 17 16" fill="none" xmlns="http://www.w3.org/2000/svg">
<path d="M11.8579 10.5755L12.2375 10.1981L11.3561 9.31168L10.9766 9.6891L11.8579 10.5755ZM13.5122 10.04L15.1043 10.9055L15.7013 9.80735L14.1092 8.94185L13.5122 10.04ZM15.4108 12.6257L14.2269 13.8028L15.1083 14.6892L16.2921 13.5121L15.4108 12.6257ZM13.5056 14.1818C12.2974 14.2944 9.17135 14.194 5.78684 10.8287L4.90547 11.7151C8.59885 15.3875 12.1141 15.5669 13.6216 15.4264L13.5056 14.1818ZM5.78684 10.8287C2.56069 7.62085 2.02628 4.92281 1.95975 3.75231L0.71177 3.82323C0.795487 5.29643 1.45721 8.28644 4.90547 11.7151L5.78684 10.8287ZM6.93294 5.67844L7.17194 5.44078L6.2906 4.55439L6.0516 4.79204L6.93294 5.67844ZM7.36219 2.41144L6.3114 1.00778L5.31074 1.75689L6.36152 3.16057L7.36219 2.41144ZM2.77721 0.70226L1.46921 2.00283L2.35058 2.88923L3.65858 1.58866L2.77721 0.70226ZM6.49227 5.23524C6.0516 4.79204 6.051 4.79263 6.0504 4.79323C6.0502 4.79344 6.0496 4.79404 6.04919 4.79445C6.04837 4.79528 6.04754 4.79611 6.0467 4.79697C6.045 4.79869 6.04325 4.80049 6.04145 4.80235C6.03785 4.80609 6.03403 4.81014 6.03001 4.81451C6.02197 4.82324 6.01315 4.83322 6.0037 4.84449C5.9848 4.86703 5.9634 4.89479 5.9409 4.928C5.89579 4.99458 5.84664 5.0826 5.80493 5.1933C5.71982 5.41918 5.6742 5.71694 5.7314 6.08564C5.84326 6.80671 6.33985 7.75919 7.61194 9.02402L8.49327 8.1376C7.30285 6.95393 7.01927 6.23359 6.9666 5.89401C6.94152 5.7324 6.96752 5.65286 6.97469 5.63403C6.97902 5.62238 6.9811 5.62118 6.97577 5.62914C6.9731 5.63303 6.96869 5.63913 6.96177 5.64734C6.95835 5.65144 6.95427 5.65609 6.94952 5.66128C6.9471 5.66387 6.9446 5.66659 6.94177 5.66945C6.94044 5.67089 6.93902 5.67234 6.93752 5.67384C6.93677 5.67459 6.93602 5.67535 6.93527 5.67612C6.93494 5.6765 6.93435 5.67708 6.9341 5.67728C6.93352 5.67786 6.93294 5.67844 6.49227 5.23524ZM7.61194 9.02402C8.88444 10.2893 9.84135 10.7817 10.5636 10.8925C10.9327 10.9491 11.2303 10.9039 11.456 10.8199C11.5667 10.7786 11.6549 10.73 11.7215 10.6854C11.7549 10.663 11.7827 10.6418 11.8053 10.623C11.8166 10.6137 11.8266 10.6049 11.8354 10.5969C11.8398 10.5929 11.8439 10.5892 11.8476 10.5856C11.8495 10.5838 11.8513 10.582 11.853 10.5804C11.8539 10.5795 11.8547 10.5787 11.8555 10.5779C11.8559 10.5774 11.8566 10.5769 11.8568 10.5767C11.8574 10.5761 11.8579 10.5755 11.4173 10.1323C10.9766 9.6891 10.9772 9.68852 10.9778 9.68793C10.9779 9.68777 10.9785 9.68719 10.9789 9.68677C10.9797 9.68602 10.9804 9.68527 10.9812 9.68452C10.9828 9.6831 10.9842 9.68168 10.9856 9.68027C10.9885 9.67752 10.9913 9.67502 10.9939 9.6726C10.999 9.66793 11.0037 9.66385 11.0079 9.66052C11.016 9.65368 11.0221 9.64935 11.0259 9.64677C11.0336 9.6416 11.032 9.64393 11.0197 9.64852C10.9993 9.6561 10.9175 9.68219 10.7532 9.65693C10.4088 9.60419 9.68335 9.32085 8.49327 8.1376L7.61194 9.02402ZM6.3114 1.00778C5.46197 -0.126882 3.79165 -0.306424 2.77721 0.70226L3.65858 1.58866C4.10165 1.1481 4.88855 1.19294 5.31074 1.75689L6.3114 1.00778ZM1.95975 3.75231C1.94336 3.46389 2.07565 3.1626 2.35058 2.88923L1.46921 2.00283C1.02145 2.44806 0.669429 3.07831 0.71177 3.82323L1.95975 3.75231ZM14.2269 13.8028C13.9979 14.0305 13.7524 14.1588 13.5056 14.1818L13.6216 15.4264C14.2338 15.3693 14.7354 15.06 15.1083 14.6892L14.2269 13.8028ZM7.17194 5.44078C7.99235 4.62502 8.05335 3.33468 7.36219 2.41144L6.36152 3.16057C6.69777 3.60972 6.64777 4.19925 6.2906 4.55439L7.17194 5.44078ZM15.1043 10.9055C15.7858 11.276 15.8919 12.1472 15.4108 12.6257L16.2921 13.5121C17.409 12.4015 17.0646 10.5484 15.7013 9.80735L15.1043 10.9055ZM12.2375 10.1981C12.5575 9.87993 13.0726 9.8011 13.5122 10.04L14.1092 8.94185C13.2062 8.45093 12.0855 8.58652 11.3561 9.31168L12.2375 10.1981Z" fill="#4B8B8B"/>
</svg>
