<svg width="14" height="15" viewBox="0 0 14 15" fill="none" xmlns="http://www.w3.org/2000/svg">
<path fill-rule="evenodd" clip-rule="evenodd" d="M10.1495 9.76525C10.9196 8.8025 11.3801 7.58131 11.3801 6.25256C11.3801 3.14454 8.86056 0.625 5.75256 0.625C2.64454 0.625 0.125 3.14454 0.125 6.25256C0.125 9.36056 2.64454 11.8801 5.75256 11.8801C7.08131 11.8801 8.3025 11.4196 9.26525 10.6495L12.8076 14.1919C13.0517 14.4361 13.4477 14.4361 13.6919 14.1919C13.9361 13.9477 13.9361 13.5517 13.6919 13.3076L10.1495 9.76525ZM5.75256 10.6358C3.33175 10.6358 1.36929 8.67337 1.36929 6.25256C1.36929 3.83175 3.33175 1.86929 5.75256 1.86929C8.17337 1.86929 10.1358 3.83175 10.1358 6.25256C10.1358 8.67337 8.17337 10.6358 5.75256 10.6358Z" fill="#4B8B8B"/>
</svg>
