<svg width="20" height="20" viewBox="0 0 20 20" fill="none" xmlns="http://www.w3.org/2000/svg">
<path d="M15.8333 1.66667H15V0.833333C15 0.373333 14.6267 0 14.1667 0C13.7067 0 13.3333 0.373333 13.3333 0.833333V1.66667H6.66667V0.833333C6.66667 0.373333 6.29333 0 5.83333 0C5.37333 0 5 0.373333 5 0.833333V1.66667H4.16667C1.86917 1.66667 0 3.53583 0 5.83333V15.8333C0 18.1308 1.86917 20 4.16667 20H15.8333C18.1308 20 20 18.1308 20 15.8333V5.83333C20 3.53583 18.1308 1.66667 15.8333 1.66667ZM4.16667 3.33333H15.8333C17.2117 3.33333 18.3333 4.455 18.3333 5.83333V6.66667H1.66667V5.83333C1.66667 4.455 2.78833 3.33333 4.16667 3.33333ZM15.8333 18.3333H4.16667C2.78833 18.3333 1.66667 17.2117 1.66667 15.8333V8.33333H18.3333V15.8333C18.3333 17.2117 17.2117 18.3333 15.8333 18.3333ZM13.3333 13.3333C13.3333 13.7933 12.96 14.1667 12.5 14.1667H10.8333V15.8333C10.8333 16.2933 10.46 16.6667 10 16.6667C9.54 16.6667 9.16667 16.2933 9.16667 15.8333V14.1667H7.5C7.04 14.1667 6.66667 13.7933 6.66667 13.3333C6.66667 12.8733 7.04 12.5 7.5 12.5H9.16667V10.8333C9.16667 10.3733 9.54 10 10 10C10.46 10 10.8333 10.3733 10.8333 10.8333V12.5H12.5C12.96 12.5 13.3333 12.8733 13.3333 13.3333Z" fill="#4B8B8B"/>
</svg>
