<svg width="15" height="16" viewBox="0 0 15 16" fill="none" xmlns="http://www.w3.org/2000/svg">
<g clip-path="url(#clip0_86_907)">
<path d="M4.81703 6.28499C5.06141 6.52937 5.06141 6.92499 4.81703 7.16874C4.57266 7.41312 4.17703 7.41312 3.93328 7.16874C3.68891 6.92437 3.68891 6.52874 3.93328 6.28499C4.17766 6.04062 4.57328 6.04062 4.81703 6.28499ZM13.4745 10.0881L13.1214 10.4412C13.1045 11.2119 12.8058 11.9769 12.2245 12.5656L10.2452 14.5706C9.65578 15.1675 8.86953 15.4975 8.03078 15.5H8.02016C7.18578 15.5 6.40141 15.175 5.81141 14.585L1.17641 9.98937C0.77016 9.58374 0.57391 9.02562 0.63641 8.45624L1.11453 4.13374C1.14641 3.84874 1.36703 3.62187 1.65078 3.58312L5.95641 2.99437C6.53891 2.91687 7.12516 3.11499 7.53641 3.52624L12.2083 8.15874C12.4502 8.40062 12.6439 8.67312 12.7902 8.96374C13.2977 8.23499 13.2264 7.21687 12.5764 6.56687L7.83204 1.93874C7.68891 1.79562 7.49141 1.72937 7.30016 1.75624L2.99453 2.34499C2.65141 2.39124 2.33703 2.15187 2.29016 1.81062C2.24391 1.46874 2.48328 1.15374 2.82453 1.10687L7.13078 0.517491C7.70641 0.435616 8.29891 0.636866 8.71078 1.04999L13.4539 5.67812C14.6702 6.89374 14.677 8.86999 13.4739 10.0887L13.4745 10.0881ZM11.3258 9.04437L6.65391 4.41187C6.51453 4.27249 6.31891 4.20812 6.12453 4.23249L2.30266 4.75562L1.87828 8.59312C1.85766 8.78249 1.92266 8.96874 2.05766 9.10312L6.69266 13.6987C7.04829 14.055 7.51891 14.2494 8.01954 14.2494H8.02578C8.52953 14.2481 9.00141 14.05 9.35454 13.6912L11.3339 11.6862C12.0558 10.955 12.052 9.76937 11.3252 9.04312L11.3258 9.04437Z" fill="#B8BABE"/>
</g>
<defs>
<clipPath id="clip0_86_907">
<rect width="15" height="15" fill="white" transform="translate(0 0.5)"/>
</clipPath>
</defs>
</svg>
